<?xml version="1.0" encoding="UTF-8" standalone="no"?>
<!DOCTYPE svg PUBLIC "-//W3C//DTD SVG 1.1//EN" "http://www.w3.org/Graphics/SVG/1.1/DTD/svg11.dtd">
<svg width="100%" height="100%" viewBox="0 0 329 209" version="1.1" xmlns="http://www.w3.org/2000/svg" xmlns:xlink="http://www.w3.org/1999/xlink" xml:space="preserve" xmlns:serif="http://www.serif.com/" style="fill-rule:evenodd;clip-rule:evenodd;stroke-linejoin:round;stroke-miterlimit:2;">
    <g id="document-graph" transform="matrix(3.26511,0,0,3.26511,28.1813,110.349)">
        <path d="M19,3L9.009,3C7.899,3 7,3.898 7,5.007L7,27.993C7,29.101 7.891,30 8.997,30L24.003,30C25.106,30 26,29.109 26,28.003L26,11L21.006,11C19.898,11 19,10.113 19,9.002L19,3ZM20,3L20,8.997C20,9.551 20.451,10 20.991,10L26,10L20,3ZM14.959,21.801L12,24.975L12,25L22,25L22,26L11,26L11,18L12,18L12,23.509L14.91,20.388L17.104,22.434L20.306,19L19,19L19,18L22,18L22,21L21,21L21,19.723L17.153,23.847L14.959,21.801Z" style="fill:rgb(69,90,100);"/>
    </g>
    <g id="document-font" transform="matrix(1.18519,0,0,1.18519,288.704,140.444)">
        <path d="M22,25.5C21.582,25.814 21.063,26 20.5,26C19.119,26 18,24.881 18,23.5C18,22.119 19.119,21 20.5,21C21.063,21 21.582,21.186 22,21.5L22,21L23,21L23,26L22,26L22,25.5ZM14.929,23L16,26L17,26L14,18L13,18L10,26L11,26L12.071,23L14.929,23ZM14.571,22L13.5,19L12.429,22L14.571,22ZM19,3L9.009,3C7.899,3 7,3.898 7,5.007L7,27.993C7,29.101 7.891,30 8.997,30L24.003,30C25.106,30 26,29.109 26,28.003L26,11L21.006,11C19.898,11 19,10.113 19,9.002L19,3ZM20,3L20,8.997C20,9.551 20.451,10 20.991,10L26,10L20,3ZM20.5,25C21.328,25 22,24.328 22,23.5C22,22.672 21.328,22 20.5,22C19.672,22 19,22.672 19,23.5C19,24.328 19.672,25 20.5,25Z" style="fill:rgb(120,144,156);"/>
    </g>
    <g id="document-diagrams" transform="matrix(2.10526,0,0,2.10526,273.522,9.68421)">
        <path d="M19,3L9.009,3C7.899,3 7,3.898 7,5.007L7,27.993C7,29.101 7.891,30 8.997,30L24.003,30C25.106,30 26,29.109 26,28.003L26,11L21.006,11C19.898,11 19,10.113 19,9.002L19,3ZM20,3L20,8.997C20,9.551 20.451,10 20.991,10L26,10L20,3ZM11,21L11,25L14,25L14,21L11,21ZM15,16L15,25L18,25L18,16L15,16ZM19,19L19,25L22,25L22,19L19,19Z" style="fill:rgb(84,110,122);"/>
    </g>
    <g id="mail-envelope-open" transform="matrix(2.48148,0,0,2.48148,-9.92593,-7.44444)">
        <path d="M11.293,19L8,16.2L8,8.002C8,7.444 8.448,7 9,7L24,7C24.545,7 25,7.449 25,8.002L25,16.2L21.667,19L11.293,19ZM12.469,20L14.252,21.516L18.672,21.516L20.476,20L12.469,20ZM22.185,20.127L20,22L25.923,27.077L25.115,27.885L19.12,22.745L13.896,22.768L13.875,22.75L7.885,27.885L7.077,27.077L13,22L10.815,20.127L7,16.9L7,11.36L4,14L4,28.006C4,29.107 4.89,30 6.004,30L26.996,30C28.103,30 29,29.105 29,28.006L29,14L26,11.36L26,16.9L22.185,20.127ZM19.909,6L16.5,3L13.091,6L19.909,6ZM10,10L10,11L23,11L23,10L10,10ZM10,13L10,14L23,14L23,13L10,13ZM10,16L10,17L23,17L23,16L10,16Z" style="fill:rgb(176,190,197);"/>
    </g>
    <g id="document-image" transform="matrix(1.76218,0,0,1.76218,188.665,4.42398)">
        <path d="M22,24.046L22,18L11,18L11,25L13.5,23L14.958,24.25L18.593,21L22,24.046ZM19,3L9.009,3C7.899,3 7,3.898 7,5.007L7,27.993C7,29.101 7.891,30 8.997,30L24.003,30C25.106,30 26,29.109 26,28.003L26,11L21.006,11C19.898,11 19,10.113 19,9.002L19,3ZM20,3L20,8.997C20,9.551 20.451,10 20.991,10L26,10L20,3ZM10,17L10,27L23,27L23,17L10,17ZM14,21C14.552,21 15,20.552 15,20C15,19.448 14.552,19 14,19C13.448,19 13,19.448 13,20C13,20.552 13.448,21 14,21Z" style="fill:rgb(84,110,122);"/>
    </g>
    <g id="document-file-jpg" transform="matrix(2.61671,0,0,2.61671,103.73,10.8243)">
        <path d="M21,26L21,28.003C21,29.109 20.106,30 19.003,30L3.997,30C2.891,30 2,29.101 2,27.993L2,5.007C2,3.898 2.899,3 4.009,3L14,3L14,9.002C14,10.113 14.898,11 16.006,11L21,11L21,13L12.007,13C10.346,13 9,14.342 9,15.999L9,23.001C9,24.657 10.336,26 12.007,26L21,26ZM15,3L15,8.997C15,9.551 15.451,10 15.991,10L21,10L15,3ZM11.995,14C10.893,14 10,14.9 10,15.992L10,23.008C10,24.108 10.902,25 11.995,25L29.005,25C30.107,25 31,24.1 31,23.008L31,15.992C31,14.892 30.098,14 29.005,14L11.995,14ZM12,20L12,20.994C12,22.102 12.894,23 14.005,23L14.995,23C16.102,23 17,22.113 17,20.994L17,16L16,16L16,21.009C16,21.549 15.553,22 15.001,22L13.999,22C13.443,22 13,21.552 13,21L13,20L12,20ZM18,16L18,23L19,23L19,20L20.995,20C22.102,20 23,19.112 23,18C23,16.895 22.106,16 20.995,16L18,16ZM19,17L19,19L21.001,19C21.553,19 22,18.556 22,18C22,17.448 21.557,17 21.001,17L19,17ZM28,20L28,22L26,22C25.444,22 25,21.552 25,21L25,18C25,17.444 25.448,17 26,17L29,17L29,16L26.005,16C24.898,16 24,16.887 24,18.006L24,20.994C24,22.102 24.894,23 26.005,23L29,23L29,19L26,19L26,20L28,20Z" style="fill:rgb(176,190,197);"/>
    </g>
    <g id="printer-text" transform="matrix(1,0,0,1,137,103.151)">
        <path d="M6,9L6,2.997C6,1.896 6.894,1 7.997,1L23.003,1C24.109,1 25,1.894 25,2.997L25,9L6,9ZM5,25L3.994,25C2.341,25 1,23.657 1,22.001L1,12.999C1,11.344 2.341,10 3.994,10L27.006,10C28.659,10 30,11.343 30,12.999L30,22.001C30,23.656 28.659,25 27.006,25L26,25L26,20L5,20L5,25ZM6,21L6,29C6,30.105 6.891,31 7.997,31L23.003,31C24.106,31 25,30.113 25,29L25,21L6,21ZM24,16C24.552,16 25,15.552 25,15C25,14.448 24.552,14 24,14C23.448,14 23,14.448 23,15C23,15.552 23.448,16 24,16ZM8,24L8,25L23,25L23,24L8,24ZM8,27L8,28L23,28L23,27L8,27Z" style="fill:rgb(96,125,139);"/>
    </g>
    <g id="document-file-txt" transform="matrix(1,0,0,1,10,78)">
        <path d="M21,26L21,28.003C21,29.109 20.106,30 19.003,30L3.997,30C2.891,30 2,29.101 2,27.993L2,5.007C2,3.898 2.899,3 4.009,3L14,3L14,9.002C14,10.113 14.898,11 16.006,11L21,11L21,13L12.007,13C10.346,13 9,14.342 9,15.999L9,23.001C9,24.657 10.336,26 12.007,26L21,26ZM15,3L15,8.997C15,9.551 15.451,10 15.991,10L21,10L15,3ZM11.995,14C10.893,14 10,14.9 10,15.992L10,23.008C10,24.108 10.902,25 11.995,25L29.005,25C30.107,25 31,24.1 31,23.008L31,15.992C31,14.892 30.098,14 29.005,14L11.995,14ZM14,17L14,23L15,23L15,17L17,17L17,16L12,16L12,17L14,17ZM20,19.5L18,16L19,16L20.5,18.625L22,16L23,16L21,19.5L23,23L22,23L20.5,20.375L19,23L18,23L20,19.5ZM26,17L26,23L27,23L27,17L29,17L29,16L24,16L24,17L26,17Z" style="fill:rgb(69,90,100);"/>
    </g>
    <g id="document-file-gif" transform="matrix(1,0,0,1,69,3.5)">
        <path d="M21,26L21,28.003C21,29.109 20.106,30 19.003,30L3.997,30C2.891,30 2,29.101 2,27.993L2,5.007C2,3.898 2.899,3 4.009,3L14,3L14,9.002C14,10.113 14.898,11 16.006,11L21,11L21,13L12.007,13C10.346,13 9,14.342 9,15.999L9,23.001C9,24.657 10.336,26 12.007,26L21,26ZM15,3L15,8.997C15,9.551 15.451,10 15.991,10L21,10L15,3ZM11.995,14C10.893,14 10,14.9 10,15.992L10,23.008C10,24.108 10.902,25 11.995,25L29.005,25C30.107,25 31,24.1 31,23.008L31,15.992C31,14.892 30.098,14 29.005,14L11.995,14ZM17,20L17,22L15,22C14.444,22 14,21.552 14,21L14,18C14,17.444 14.448,17 15,17L18,17L18,16L15.005,16C13.898,16 13,16.887 13,18.006L13,20.994C13,22.102 13.894,23 15.005,23L18,23L18,19L15,19L15,20L17,20ZM20,17L20,22L19,22L19,23L22,23L22,22L21,22L21,17L22,17L22,16L19,16L19,17L20,17ZM24,19L24,17L28,17L28,16L23,16L23,23L24,23L24,20L27,20L27,19L24,19Z" style="fill:rgb(69,90,100);"/>
    </g>
    <g id="document-file-png" transform="matrix(1,0,0,1,10,135.5)">
        <path d="M21,26L21,28.003C21,29.109 20.106,30 19.003,30L3.997,30C2.891,30 2,29.101 2,27.993L2,5.007C2,3.898 2.899,3 4.009,3L14,3L14,9.002C14,10.113 14.898,11 16.006,11L21,11L21,13L12.007,13C10.346,13 9,14.342 9,15.999L9,23.001C9,24.657 10.336,26 12.007,26L21,26ZM15,3L15,8.997C15,9.551 15.451,10 15.991,10L21,10L15,3ZM11.995,14C10.893,14 10,14.9 10,15.992L10,23.008C10,24.108 10.902,25 11.995,25L29.005,25C30.107,25 31,24.1 31,23.008L31,15.992C31,14.892 30.098,14 29.005,14L11.995,14ZM12,16L12,23L13,23L13,20L14.995,20C16.102,20 17,19.112 17,18C17,16.895 16.106,16 14.995,16L12,16ZM13,17L13,19L15.001,19C15.553,19 16,18.556 16,18C16,17.448 15.557,17 15.001,17L13,17ZM19,18L19,23L18,23L18,16L19,16L22,21L22,16L23,16L23,23L22,23L19,18ZM28,20L28,22L26,22C25.444,22 25,21.552 25,21L25,18C25,17.444 25.448,17 26,17L29,17L29,16L26.005,16C24.898,16 24,16.887 24,18.006L24,20.994C24,22.102 24.894,23 26.005,23L29,23L29,19L26,19L26,20L28,20Z" style="fill:rgb(96,125,139);"/>
    </g>
    <g id="document-file-pdf" transform="matrix(2.10526,0,0,2.10526,191.789,60.6842)">
        <path d="M21,26L21,28.003C21,29.109 20.106,30 19.003,30L3.997,30C2.891,30 2,29.101 2,27.993L2,5.007C2,3.898 2.899,3 4.009,3L14,3L14,9.002C14,10.113 14.898,11 16.006,11L21,11L21,13L12.007,13C10.346,13 9,14.342 9,15.999L9,23.001C9,24.657 10.336,26 12.007,26L21,26ZM15,3L15,8.997C15,9.551 15.451,10 15.991,10L21,10L15,3ZM11.995,14C10.893,14 10,14.9 10,15.992L10,23.008C10,24.108 10.902,25 11.995,25L29.005,25C30.107,25 31,24.1 31,23.008L31,15.992C31,14.892 30.098,14 29.005,14L11.995,14ZM25,19L25,17L29,17L29,16L24,16L24,23L25,23L25,20L28,20L28,19L25,19ZM12,16L12,23L13,23L13,20L14.995,20C16.102,20 17,19.112 17,18C17,16.895 16.106,16 14.995,16L12,16ZM13,17L13,19L15.001,19C15.553,19 16,18.556 16,18C16,17.448 15.557,17 15.001,17L13,17ZM18,16L18,23L20.995,23C22.102,23 23,22.113 23,20.994L23,18.006C23,16.898 22.106,16 20.995,16L18,16ZM19,17L19,22L21.001,22C21.553,22 22,21.556 22,21L22,18C22,17.448 21.557,17 21.001,17L19,17Z" style="fill:rgb(96,125,139);"/>
    </g>
    <g id="document-file-docx" transform="matrix(1,0,0,1,141,149)">
        <path d="M19,26L19,28.003C19,29.109 18.106,30 17.003,30L1.997,30C0.891,30 0,29.101 0,27.993L0,5.007C0,3.898 0.899,3 2.009,3L12,3L12,9.002C12,10.113 12.898,11 14.006,11L19,11L19,13L6.007,13C4.346,13 3,14.342 3,15.999L3,23.001C3,24.657 4.336,26 6.007,26L19,26ZM13,3L13,8.997C13,9.551 13.451,10 13.991,10L19,10L13,3ZM6.007,14C4.899,14 4,14.9 4,15.992L4,23.008C4,24.108 4.898,25 6.007,25L28.993,25C30.101,25 31,24.1 31,23.008L31,15.992C31,14.892 30.102,14 28.993,14L6.007,14ZM6,16L6,23L8.995,23C10.102,23 11,22.113 11,20.994L11,18.006C11,16.898 10.106,16 8.995,16L6,16ZM7,17L7,22L9.001,22C9.553,22 10,21.556 10,21L10,18C10,17.448 9.557,17 9.001,17L7,17ZM14.005,16C12.898,16 12,16.887 12,18.006L12,20.994C12,22.102 12.894,23 14.005,23L14.995,23C16.102,23 17,22.113 17,20.994L17,18.006C17,16.898 16.106,16 14.995,16L14.005,16ZM13.999,17C13.447,17 13,17.444 13,18L13,21C13,21.552 13.443,22 13.999,22L15.001,22C15.553,22 16,21.556 16,21L16,18C16,17.448 15.557,17 15.001,17L13.999,17ZM23,21C22.997,22.117 22.1,23 20.995,23L20.005,23C18.894,23 18,22.102 18,20.994L18,18.006C18,16.887 18.898,16 20.005,16L20.995,16C22.104,16 22.997,16.895 23,18L22,18C22,17.448 21.557,17 21.001,17L19.999,17C19.447,17 19,17.444 19,18L19,21C19,21.552 19.443,22 19.999,22L21.001,22C21.553,22 22,21.556 22,21L23,21ZM26,19.5L24,16L25,16L26.5,18.625L28,16L29,16L27,19.5L29,23L28,23L26.5,20.375L25,23L24,23L26,19.5Z" style="fill:rgb(207,216,220);"/>
    </g>
    <g id="document-file-xls" transform="matrix(1,0,0,1,248.634,48)">
        <path d="M21,26L21,28.003C21,29.109 20.106,30 19.003,30L3.997,30C2.891,30 2,29.101 2,27.993L2,5.007C2,3.898 2.899,3 4.009,3L14,3L14,9.002C14,10.113 14.898,11 16.006,11L21,11L21,13L12.007,13C10.346,13 9,14.342 9,15.999L9,23.001C9,24.657 10.336,26 12.007,26L21,26ZM15,3L15,8.997C15,9.551 15.451,10 15.991,10L21,10L15,3ZM11.995,14C10.893,14 10,14.9 10,15.992L10,23.008C10,24.108 10.902,25 11.995,25L29.005,25C30.107,25 31,24.1 31,23.008L31,15.992C31,14.892 30.098,14 29.005,14L11.995,14ZM14,19.5L12,16L13,16L14.5,18.625L16,16L17,16L15,19.5L17,23L16,23L14.5,20.375L13,23L12,23L14,19.5ZM23,22L23,23L18,23L18,16L19,16L19,22L23,22ZM26.005,16C24.898,16 24,16.888 24,18C24,19.105 24.888,20 26,20L26.991,20C27.548,20 28,20.444 28,21C28,21.552 27.557,22 27.001,22L25.999,22C25.447,22 25,21.544 25,21.004L25,20.993L24,20.993L24,20.999C24,22.104 24.894,23 26.005,23L26.995,23C28.102,23 29,22.112 29,21C29,19.895 28.112,19 27,19L26.009,19C25.452,19 25,18.556 25,18C25,17.448 25.443,17 25.999,17L27.001,17C27.553,17 28,17.453 28,18L29,18C29,16.895 28.106,16 26.995,16L26.005,16Z" style="fill:rgb(207,216,220);"/>
    </g>
    <g id="document-file-tiff" transform="matrix(1,0,0,1,237.5,154)">
        <path d="M19,26L19,28.003C19,29.109 18.106,30 17.003,30L1.997,30C0.891,30 0,29.101 0,27.993L0,5.007C0,3.898 0.899,3 2.009,3L12,3L12,9.002C12,10.113 12.898,11 14.006,11L19,11L19,13L8.007,13C6.346,13 5,14.342 5,15.999L5,23.001C5,24.657 6.336,26 8.007,26L19,26ZM13,3L13,8.997C13,9.551 13.451,10 13.991,10L19,10L13,3ZM8.004,14C6.897,14 6,14.9 6,15.992L6,23.008C6,24.108 6.89,25 8.004,25L28.996,25C30.103,25 31,24.1 31,23.008L31,15.992C31,14.892 30.11,14 28.996,14L8.004,14ZM10,17L10,23L11,23L11,17L13,17L13,16L8,16L8,17L10,17ZM15,17L15,22L14,22L14,23L17,23L17,22L16,22L16,17L17,17L17,16L14,16L14,17L15,17ZM19,19L19,17L23,17L23,16L18,16L18,23L19,23L19,20L22,20L22,19L19,19ZM25,19L25,17L29,17L29,16L24,16L24,23L25,23L25,20L28,20L28,19L25,19Z" style="fill:rgb(176,190,197);"/>
    </g>
</svg>
